<svg width="137" height="22" viewBox="0 0 137 22" fill="none" xmlns="http://www.w3.org/2000/svg">
<path d="M12.266 17H0.188V1.6H3.334V14.206H10.462V1.6H13.608V14.206H15.412V20.52H12.266V17ZM22.3389 5.428C24.2456 5.428 25.7709 6.11733 26.9149 7.496C28.0736 8.86 28.4989 10.488 28.1909 12.38H19.4349C19.6402 13.0693 20.0142 13.6267 20.5569 14.052C21.1142 14.4627 21.7742 14.668 22.5369 14.668C23.8276 14.668 24.7662 14.14 25.3529 13.084L27.7949 14.184C27.2816 15.108 26.5556 15.8487 25.6169 16.406C24.6929 16.9487 23.6369 17.22 22.4489 17.22C20.7182 17.22 19.2736 16.6553 18.1149 15.526C16.9562 14.3967 16.3769 12.996 16.3769 11.324C16.3769 9.652 16.9489 8.25133 18.0929 7.122C19.2369 5.99267 20.6522 5.428 22.3389 5.428ZM22.3389 7.98C21.6789 7.98 21.0849 8.178 20.5569 8.574C20.0436 8.95533 19.6842 9.46867 19.4789 10.114H25.2209C25.0156 9.46867 24.6562 8.95533 24.1429 8.574C23.6296 8.178 23.0282 7.98 22.3389 7.98ZM33.2146 17H30.2446V5.648H33.2146V10.026H38.3626V5.648H41.3326V17H38.3626V12.622H33.2146V17ZM49.6988 17H46.7288V8.266H43.0108V5.648H53.3948V8.266H49.6988V17ZM62.1876 5.428C63.5956 5.428 64.7616 5.99267 65.6856 7.122C66.6096 8.25133 67.0716 9.652 67.0716 11.324C67.0716 12.996 66.6096 14.3967 65.6856 15.526C64.7616 16.6553 63.5956 17.22 62.1876 17.22C61.1903 17.22 60.3249 16.912 59.5916 16.296C58.8729 15.6653 58.3449 14.8147 58.0076 13.744V21.4H55.0376V5.648H58.0076V8.904C58.3449 7.83333 58.8729 6.99 59.5916 6.374C60.3249 5.74333 61.1903 5.428 62.1876 5.428ZM61.1096 14.514C61.9163 14.514 62.5983 14.2133 63.1556 13.612C63.7129 12.996 63.9916 12.2333 63.9916 11.324C63.9916 10.4293 63.7129 9.68133 63.1556 9.08C62.5983 8.464 61.9163 8.156 61.1096 8.156C60.2149 8.156 59.4743 8.45667 58.8876 9.058C58.3009 9.65933 58.0076 10.4147 58.0076 11.324C58.0076 12.2333 58.3009 12.996 58.8876 13.612C59.4743 14.2133 60.2149 14.514 61.1096 14.514ZM75.9565 5.868C77.3352 5.868 78.4938 6.40333 79.4325 7.474C80.3712 8.54467 80.8405 9.84267 80.8405 11.368C80.8405 13.0547 80.2612 14.4553 79.1025 15.57C77.9585 16.67 76.5285 17.22 74.8125 17.22C73.0378 17.22 71.5712 16.6333 70.4125 15.46C69.2685 14.2867 68.6965 12.666 68.6965 10.598C68.6965 6.09533 69.9725 3.23533 72.5245 2.018C73.3605 1.622 74.5778 1.32867 76.1765 1.138C77.7898 0.932666 79.0365 0.719999 79.9165 0.499999V3.184C79.2272 3.38933 78.1712 3.58 76.7485 3.756C75.3405 3.91733 74.3872 4.11533 73.8885 4.35C72.6272 4.93667 71.9378 6.51333 71.8205 9.08C72.0552 8.25867 72.5465 7.518 73.2945 6.858C74.0425 6.198 74.9298 5.868 75.9565 5.868ZM74.8125 14.514C75.6485 14.514 76.3452 14.2353 76.9025 13.678C77.4745 13.106 77.7605 12.3947 77.7605 11.544C77.7605 10.708 77.4818 10.004 76.9245 9.432C76.3818 8.86 75.7145 8.574 74.9225 8.574C74.0278 8.574 73.2945 8.86 72.7225 9.432C72.1505 9.98933 71.8645 10.6933 71.8645 11.544C71.8645 12.3947 72.1432 13.106 72.7005 13.678C73.2578 14.2353 73.9618 14.514 74.8125 14.514ZM89.9239 5.428C91.3319 5.428 92.4979 5.99267 93.4219 7.122C94.3459 8.25133 94.8079 9.652 94.8079 11.324C94.8079 12.996 94.3459 14.3967 93.4219 15.526C92.4979 16.6553 91.3319 17.22 89.9239 17.22C88.9266 17.22 88.0613 16.912 87.3279 16.296C86.6093 15.6653 86.0813 14.8147 85.7439 13.744V21.4H82.7739V5.648H85.7439V8.904C86.0813 7.83333 86.6093 6.99 87.3279 6.374C88.0613 5.74333 88.9266 5.428 89.9239 5.428ZM88.8459 14.514C89.6526 14.514 90.3346 14.2133 90.8919 13.612C91.4493 12.996 91.7279 12.2333 91.7279 11.324C91.7279 10.4293 91.4493 9.68133 90.8919 9.08C90.3346 8.464 89.6526 8.156 88.8459 8.156C87.9513 8.156 87.2106 8.45667 86.6239 9.058C86.0373 9.65933 85.7439 10.4147 85.7439 11.324C85.7439 12.2333 86.0373 12.996 86.6239 13.612C87.2106 14.2133 87.9513 14.514 88.8459 14.514ZM102.218 5.428C104.124 5.428 105.65 6.11733 106.794 7.496C107.952 8.86 108.378 10.488 108.07 12.38H99.3138C99.5191 13.0693 99.8931 13.6267 100.436 14.052C100.993 14.4627 101.653 14.668 102.416 14.668C103.706 14.668 104.645 14.14 105.232 13.084L107.674 14.184C107.16 15.108 106.434 15.8487 105.496 16.406C104.572 16.9487 103.516 17.22 102.328 17.22C100.597 17.22 99.1525 16.6553 97.9938 15.526C96.8351 14.3967 96.2558 12.996 96.2558 11.324C96.2558 9.652 96.8278 8.25133 97.9718 7.122C99.1158 5.99267 100.531 5.428 102.218 5.428ZM102.218 7.98C101.558 7.98 100.964 8.178 100.436 8.574C99.9225 8.95533 99.5631 9.46867 99.3578 10.114H105.1C104.894 9.46867 104.535 8.95533 104.022 8.574C103.508 8.178 102.907 7.98 102.218 7.98ZM113.094 17H110.124V5.648H113.094V10.026H118.242V5.648H121.212V17H118.242V12.622H113.094V17ZM134.704 5.648V14.382H136.244V20.256H133.45V17H125.376V20.256H122.582V14.382H123.836C124.32 13.8833 124.65 13.3333 124.826 12.732C125.016 12.116 125.112 11.104 125.112 9.696V5.648H134.704ZM126.938 14.382H131.734V8.266H127.906V9.696C127.906 11.0453 127.832 12.0647 127.686 12.754C127.539 13.4433 127.29 13.986 126.938 14.382Z" fill="#242424"/>
</svg>
