<svg width="479" height="81" viewBox="0 0 479 81" fill="none" xmlns="http://www.w3.org/2000/svg">
<path d="M28.078 79H0.558V18.8H46.826V33.85H19.134V38.666H28.078C35.3593 38.666 41.2073 40.5293 45.622 44.256C49.9793 47.9253 52.158 52.77 52.158 58.79C52.158 64.6953 49.9507 69.54 45.536 73.324C41.1787 77.108 35.3593 79 28.078 79ZM19.134 51.738V63.692H26.616C28.68 63.692 30.3713 63.1473 31.69 62.058C33.0087 60.9687 33.668 59.564 33.668 57.844C33.668 56.0667 33.0087 54.6047 31.69 53.458C30.3713 52.3113 28.68 51.738 26.616 51.738H19.134ZM73.3012 79H57.5632V18.8H75.4512V48.728L98.6712 18.8H113.893V79H96.1772V49.33L73.3012 79ZM140.617 79H122.127V18.8H168.481V34.71H140.617V79ZM193.339 79H174.849V18.8H193.339V39.182H211.743V18.8H230.233V79H211.743V55.264H193.339V79ZM253.281 80.204C246.86 80.204 241.556 79.1147 237.371 76.936V59.478C241.442 62.3447 246.372 63.778 252.163 63.778C255.947 63.778 259.215 63.004 261.967 61.456C264.776 59.8507 266.783 57.672 267.987 54.92H249.153V40.644H266.697C263.658 36.2293 259.072 34.022 252.937 34.022C248.006 34.022 243.104 35.3407 238.231 37.978V20.778C242.416 18.6567 247.49 17.596 253.453 17.596C263.372 17.596 271.57 20.52 278.049 26.368C284.528 32.1587 287.767 39.6693 287.767 48.9C287.767 58.1307 284.499 65.67 277.963 71.518C271.37 77.3087 263.142 80.204 253.281 80.204ZM310.141 79H294.403V18.8H312.291V48.728L335.511 18.8H350.733V79H333.017V49.33L310.141 79ZM334.565 11.748C331.354 14.5 327.398 15.876 322.697 15.876C317.995 15.876 314.039 14.5 310.829 11.748C307.618 8.88133 305.984 5.06867 305.927 0.309998H317.623C317.68 3.406 319.343 4.95399 322.611 4.95399C325.764 4.95399 327.398 3.406 327.513 0.309998H339.381C339.266 5.126 337.661 8.93866 334.565 11.748ZM376.854 79H358.966V18.8H377.284L390.442 40.214L403.686 18.8H421.918V79H404.202V45.288L395.688 59.65H385.712L376.854 45.288V79ZM462.931 80.204C453.07 80.204 444.842 77.3087 438.249 71.518C431.713 65.67 428.445 58.1307 428.445 48.9C428.445 39.6693 431.684 32.1587 438.163 26.368C444.584 20.52 452.783 17.596 462.759 17.596C468.722 17.596 473.796 18.6567 477.981 20.778V38.236C473.108 35.5987 468.206 34.28 463.275 34.28C458.688 34.28 454.904 35.6847 451.923 38.494C448.942 41.246 447.451 44.7147 447.451 48.9C447.451 53.2 448.999 56.726 452.095 59.478C455.248 62.1727 459.204 63.52 463.963 63.52C469.811 63.52 474.77 62.0867 478.841 59.22V76.936C474.656 79.1147 469.352 80.204 462.931 80.204Z" fill="#343434"/>
</svg>
